<svg width="61" height="60" viewBox="0 0 61 60" fill="none" xmlns="http://www.w3.org/2000/svg">
<rect x="1.25" y="0.5" width="59" height="59" rx="29.5" stroke="url(#paint0_linear_170_3081)"/>
<rect x="1.25" y="0.5" width="59" height="59" rx="29.5" stroke="url(#paint1_linear_170_3081)"/>
<rect x="9.25" y="8.5" width="43" height="43" rx="21.5" stroke="url(#paint2_linear_170_3081)"/>
<rect x="9.25" y="8.5" width="43" height="43" rx="21.5" stroke="url(#paint3_linear_170_3081)"/>
<path d="M22.2029 26.5453C23.6087 27.9512 25.8881 27.9512 27.294 26.5453C27.4668 26.3725 27.6183 26.1866 27.7486 25.9907C28.3936 26.9606 29.4964 27.5998 30.7484 27.5998C32.0007 27.5998 33.1036 26.9604 33.7485 25.9903C33.8789 26.1864 34.0305 26.3725 34.2034 26.5453C35.6093 27.9512 37.8887 27.9512 39.2946 26.5453C40.7005 25.1395 40.7005 22.8601 39.2946 21.4542L38.9434 21.103C38.4933 20.6529 37.8828 20.4 37.2463 20.4H24.2511C23.6145 20.4 23.0041 20.6529 22.554 21.103L22.2029 21.4541C20.797 22.86 20.797 25.1394 22.2029 26.5453Z" fill="#A685FA"/>
<path d="M22.3484 28.8387C24.062 29.6888 26.1332 29.5728 27.7491 28.4905C28.6064 29.0641 29.6381 29.3997 30.7484 29.3997C31.8589 29.3997 32.8906 29.064 33.748 28.4903C35.3638 29.5727 37.4348 29.6889 39.1484 28.839V37.8H39.4484C39.9455 37.8 40.3484 38.203 40.3484 38.7C40.3484 39.1971 39.9455 39.6 39.4484 39.6H34.0484C33.5514 39.6 33.1484 39.1971 33.1484 38.7V34.5C33.1484 34.003 32.7455 33.6 32.2484 33.6H29.2484C28.7514 33.6 28.3484 34.003 28.3484 34.5V38.7C28.3484 39.1971 27.9455 39.6 27.4484 39.6H22.0484C21.5514 39.6 21.1484 39.1971 21.1484 38.7C21.1484 38.203 21.5514 37.8 22.0484 37.8H22.3484V28.8387Z" fill="#A685FA"/>
<defs>
<linearGradient id="paint0_linear_170_3081" x1="5.68903" y1="63.2927" x2="63.4939" y2="-4.02439" gradientUnits="userSpaceOnUse">
<stop stop-color="#A685FA"/>
<stop offset="0.323723" stop-color="#A685FA" stop-opacity="0"/>
</linearGradient>
<linearGradient id="paint1_linear_170_3081" x1="60.5671" y1="-7.68292" x2="5.68902" y2="60" gradientUnits="userSpaceOnUse">
<stop stop-color="#A685FA"/>
<stop offset="0.576615" stop-color="#A685FA" stop-opacity="0"/>
</linearGradient>
<linearGradient id="paint2_linear_170_3081" x1="3.95968" y1="10.4839" x2="52.5726" y2="52" gradientUnits="userSpaceOnUse">
<stop stop-color="#A685FA"/>
<stop offset="0.323723" stop-color="#A685FA" stop-opacity="0"/>
</linearGradient>
<linearGradient id="paint3_linear_170_3081" x1="61.4435" y1="61.9355" x2="10.3468" y2="25.7419" gradientUnits="userSpaceOnUse">
<stop stop-color="#A685FA"/>
<stop offset="0.576615" stop-color="#A685FA" stop-opacity="0"/>
</linearGradient>
</defs>
</svg>
