<svg width="61" height="60" viewBox="0 0 61 60" fill="none" xmlns="http://www.w3.org/2000/svg">
<rect x="1.25" y="0.5" width="59" height="59" rx="29.5" stroke="url(#paint0_linear_170_3097)"/>
<rect x="1.25" y="0.5" width="59" height="59" rx="29.5" stroke="url(#paint1_linear_170_3097)"/>
<rect x="9.25" y="8.5" width="43" height="43" rx="21.5" stroke="url(#paint2_linear_170_3097)"/>
<rect x="9.25" y="8.5" width="43" height="43" rx="21.5" stroke="url(#paint3_linear_170_3097)"/>
<path fill-rule="evenodd" clip-rule="evenodd" d="M19.9492 21.3C19.9492 20.803 20.3522 20.4 20.8492 20.4H33.4492C33.9463 20.4 34.3492 20.803 34.3492 21.3C34.3492 21.7971 33.9463 22.2 33.4492 22.2H33.1492V38.7C33.1492 39.1971 32.7463 39.6 32.2492 39.6H30.4492C29.9522 39.6 29.5492 39.1971 29.5492 38.7V35.7C29.5492 35.203 29.1463 34.8 28.6492 34.8H25.6492C25.1522 34.8 24.7492 35.203 24.7492 35.7V38.7C24.7492 39.1971 24.3463 39.6 23.8492 39.6H20.8492C20.3522 39.6 19.9492 39.1971 19.9492 38.7C19.9492 38.203 20.3522 37.8 20.8492 37.8H21.1492V22.2H20.8492C20.3522 22.2 19.9492 21.7971 19.9492 21.3ZM23.5492 24.6C23.5492 24.2687 23.8178 24 24.1492 24H25.3492C25.6806 24 25.9492 24.2687 25.9492 24.6V25.8C25.9492 26.1314 25.6806 26.4 25.3492 26.4H24.1492C23.8178 26.4 23.5492 26.1314 23.5492 25.8V24.6ZM24.1492 28.8C23.8178 28.8 23.5492 29.0687 23.5492 29.4V30.6C23.5492 30.9314 23.8178 31.2 24.1492 31.2H25.3492C25.6806 31.2 25.9492 30.9314 25.9492 30.6V29.4C25.9492 29.0687 25.6806 28.8 25.3492 28.8H24.1492ZM28.3492 24.6C28.3492 24.2687 28.6178 24 28.9492 24H30.1492C30.4806 24 30.7492 24.2687 30.7492 24.6V25.8C30.7492 26.1314 30.4806 26.4 30.1492 26.4H28.9492C28.6178 26.4 28.3492 26.1314 28.3492 25.8V24.6ZM28.9492 28.8C28.6178 28.8 28.3492 29.0687 28.3492 29.4V30.6C28.3492 30.9314 28.6178 31.2 28.9492 31.2H30.1492C30.4806 31.2 30.7492 30.9314 30.7492 30.6V29.4C30.7492 29.0687 30.4806 28.8 30.1492 28.8H28.9492Z" fill="#A685FA"/>
<path fill-rule="evenodd" clip-rule="evenodd" d="M35.8492 25.2C35.3522 25.2 34.9492 25.603 34.9492 26.1V38.4C34.9492 39.0628 35.4865 39.6 36.1492 39.6H40.6492C41.1463 39.6 41.5492 39.1971 41.5492 38.7C41.5492 38.203 41.1463 37.8 40.6492 37.8H40.3492V27H40.6492C41.1463 27 41.5492 26.5971 41.5492 26.1C41.5492 25.603 41.1463 25.2 40.6492 25.2H35.8492ZM36.4492 29.4C36.4492 29.0687 36.7178 28.8 37.0492 28.8H38.2492C38.5806 28.8 38.8492 29.0687 38.8492 29.4V30.6C38.8492 30.9314 38.5806 31.2 38.2492 31.2H37.0492C36.7178 31.2 36.4492 30.9314 36.4492 30.6V29.4ZM37.0492 33.6C36.7178 33.6 36.4492 33.8687 36.4492 34.2V35.4C36.4492 35.7314 36.7178 36 37.0492 36H38.2492C38.5806 36 38.8492 35.7314 38.8492 35.4V34.2C38.8492 33.8687 38.5806 33.6 38.2492 33.6H37.0492Z" fill="#A685FA"/>
<defs>
<linearGradient id="paint0_linear_170_3097" x1="5.68903" y1="63.2927" x2="63.4939" y2="-4.02439" gradientUnits="userSpaceOnUse">
<stop stop-color="#A685FA"/>
<stop offset="0.323723" stop-color="#A685FA" stop-opacity="0"/>
</linearGradient>
<linearGradient id="paint1_linear_170_3097" x1="60.5671" y1="-7.68292" x2="5.68902" y2="60" gradientUnits="userSpaceOnUse">
<stop stop-color="#A685FA"/>
<stop offset="0.576615" stop-color="#A685FA" stop-opacity="0"/>
</linearGradient>
<linearGradient id="paint2_linear_170_3097" x1="3.95968" y1="10.4839" x2="52.5726" y2="52" gradientUnits="userSpaceOnUse">
<stop stop-color="#A685FA"/>
<stop offset="0.323723" stop-color="#A685FA" stop-opacity="0"/>
</linearGradient>
<linearGradient id="paint3_linear_170_3097" x1="61.4435" y1="61.9355" x2="10.3468" y2="25.7419" gradientUnits="userSpaceOnUse">
<stop stop-color="#A685FA"/>
<stop offset="0.576615" stop-color="#A685FA" stop-opacity="0"/>
</linearGradient>
</defs>
</svg>
